<svg xmlns="http://www.w3.org/2000/svg" viewBox="-0.0156 0 26.0156 26" fill="rgb(27, 27, 27)" style="width: 37px; height: 37px; background-color: rgba(0, 0, 0, 0); position: absolute; bottom: 0px; left: 0px;">
    <path style="text-indent:0;text-align:start;line-height:normal;text-transform:none;block-progression:tb;-inkscape-font-specification:Bitstream Vera Sans" d="M 7.5 0 C 6.1192881 0 5 1.1192881 5 2.5 C 5 3.8807119 6.1192881 5 7.5 5 C 8.8807119 5 10 3.8807119 10 2.5 C 10 1.1192881 8.8807119 0 7.5 0 z M 22.5 0 C 21.119288 0 20 1.1192881 20 2.5 C 20 3.8807119 21.119288 5 22.5 5 C 23.880712 5 25 3.8807119 25 2.5 C 25 1.1192881 23.880712 0 22.5 0 z M 14.5 4 C 14.2 4 14 4.2 14 4.5 L 14 7.5 C 14 7.521 13.998074 7.5425143 14 7.5625 L 12.09375 9.46875 L 10.40625 7.1875 A 1.0001 1.0001 0 0 0 10.375 7.1875 C 9.7921624 6.458953 8.9333333 6 8 6 L 7.40625 6 L 7 6 L 6.1875 6 C 5.0541667 6 4.1047308 6.6241538 3.5625 7.4375 A 1.0001 1.0001 0 0 0 3.53125 7.5 L 0.125 13.5 A 1.0077822 1.0077822 0 0 0 0 14.1875 L 0 16 L 19 16 L 19 14 L 15.25 14 A 1.016466 1.016466 0 0 0 15.71875 13.71875 L 20 9.40625 L 20 18 L 20 25 C 20 25.6 20.4 26 21 26 L 24 26 C 24.6 26 25 25.6 25 25 L 25 18 C 25.6 18 26 17.6 26 17 L 26 9 C 26 7.3957302 24.840314 6.166723 23.28125 6.03125 C 23.188217 6.023166 23.09573 6 23 6 L 21.8125 6 C 21.045833 6 20.264277 6.3294733 19.6875 6.90625 L 14.28125 12.28125 A 1.016466 1.016466 0 0 0 14.84375 14 L 10.59375 14 L 9.71875 9.65625 L 11.1875 11.59375 A 1.0001 1.0001 0 0 0 12.71875 11.71875 L 15.71875 8.71875 A 1.016466 1.016466 0 0 0 16.03125 8 L 16.5 8 C 16.8 8 17 7.8 17 7.5 L 17 4.5 C 17 4.2 16.8 4 16.5 4 L 14.5 4 z M 4 10.75 L 3.375 14 L 2.15625 14 L 4 10.75 z" color="#000" overflow="visible" enable-background="accumulate" font-family="Bitstream Vera Sans"></path>
</svg>