<?xml version="1.0" encoding="UTF-8"?>
<svg id="Layer_2" data-name="Layer 2" xmlns="http://www.w3.org/2000/svg" xmlns:xlink="http://www.w3.org/1999/xlink" viewBox="0 0 304.27 314.2">
  <defs>
    <style>
      .cls-1 {
        fill: url(#linear-gradient);
      }
    </style>
    <linearGradient id="linear-gradient" x1="40.07" y1="321.86" x2="207.68" y2="76.75" gradientUnits="userSpaceOnUse">
      <stop offset=".14" stop-color="#744099"/>
      <stop offset=".28" stop-color="#72499d"/>
      <stop offset=".42" stop-color="#7259a7"/>
      <stop offset=".7" stop-color="#7383c2"/>
      <stop offset="1" stop-color="#75b5e3"/>
    </linearGradient>
  </defs>
  <g id="Layer_1-2" data-name="Layer 1">
    <path class="cls-1" d="M203.45,8.84s-48.46-6.61-94.71,24.63c-46.26,31.24-64.68,82.14-62.22,119.86,2.45,37.72,18.28,88.05,78.36,107.67,60.08,19.62,114.35-16.35,132.1-59.76,17.75-43.42-.62-98.12-50.04-113.58s-90.48,21.54-95.3,52.47,8.2,65.49,50.42,62.27c23.34-1.78,36.05-25.15,35.22-40.31-.84-15.16-14.3-22.03-27.54-17.95-13.24,4.08-11.8,17.09-10.04,19.28,2.77,3.45,6.76,4.04,11.07,1.66,1.31-.72,2.92.19,3.05,1.68.27,3.21-.56,8.06-6.99,11.05-10.25,4.77-30.68-1.84-29.63-26.43,1.06-24.92,27.22-39.86,48.39-36.37,21.17,3.49,41.45,19.61,43.93,49.59,2.65,31.92-26.82,74.21-73.64,72.87-46.82-1.34-80.89-36.76-81.57-83.39-.68-46.63,29.39-95.51,92.33-106.08,62.94-10.57,118.36,31.01,133.11,83.51,14.75,52.49-6.62,116.99-63.89,156.96-57.27,39.97-142.5,35.18-199.1-26.76C-19.84,199.75-7.15,96,48,42.93,103.14-10.14,173.52-3.96,203.45,8.84Z"/>
  </g>
</svg>