<svg xmlns="http://www.w3.org/2000/svg" width="920" height="352" viewBox="0 0 920 352" style="max-width:100%;height:auto;" role="img" aria-label="Comparison of replaying an entire job versus durable execution resuming from the last completed step"><rect x="10" y="14" width="432" height="324" rx="16" fill="#FFFFFF" stroke="#E4E7EC" stroke-width="1.5"/><path d="M 11.5 30 a14.5 14.5 0 0 1 14.5 -14.5 h 401 a14.5 14.5 0 0 1 14.5 14.5 v 26 h -429 z" fill="#FCE7E7"/><text x="226.0" y="40" text-anchor="middle" font-family='Satoshi, Inter, -apple-system, BlinkMacSystemFont, "Segoe UI", Roboto, Helvetica, Arial, sans-serif' font-size="16.5" font-weight="800" fill="#B42318">Without durable execution</text><text x="36" y="80" text-anchor="start" font-family='Satoshi, Inter, -apple-system, BlinkMacSystemFont, "Segoe UI", Roboto, Helvetica, Arial, sans-serif' font-size="12.5" font-weight="700" fill="#667085" letter-spacing="1.2">FIRST ATTEMPT</text><rect x="36" y="90" width="116" height="56" rx="10" fill="#E7F8F0" stroke="#12B886" stroke-width="1.5"/><text x="94.0" y="113" text-anchor="middle" font-family='Satoshi, Inter, -apple-system, BlinkMacSystemFont, "Segoe UI", Roboto, Helvetica, Arial, sans-serif' font-size="16" font-weight="700" fill="#0B7A55">Charge</text><text x="94.0" y="132" text-anchor="middle" font-family='Satoshi, Inter, -apple-system, BlinkMacSystemFont, "Segoe UI", Roboto, Helvetica, Arial, sans-serif' font-size="12.5" font-weight="600" fill="#0B7A55">done</text><circle cx="139" cy="103" r="8" fill="#12B886"/><path d="M 135.4 103.2 L 138 105.8 L 142.8 100" fill="none" stroke="#fff" stroke-width="2" stroke-linecap="round" stroke-linejoin="round"/><line x1="154" y1="118.0" x2="171" y2="118.0" stroke="#98A2B3" stroke-width="2"/><path d="M 171 114.0 L 177 118.0 L 171 122.0 Z" fill="#98A2B3"/><rect x="175" y="90" width="116" height="56" rx="10" fill="#E7F8F0" stroke="#12B886" stroke-width="1.5"/><text x="233.0" y="113" text-anchor="middle" font-family='Satoshi, Inter, -apple-system, BlinkMacSystemFont, "Segoe UI", Roboto, Helvetica, Arial, sans-serif' font-size="16" font-weight="700" fill="#0B7A55">Reserve</text><text x="233.0" y="132" text-anchor="middle" font-family='Satoshi, Inter, -apple-system, BlinkMacSystemFont, "Segoe UI", Roboto, Helvetica, Arial, sans-serif' font-size="12.5" font-weight="600" fill="#0B7A55">done</text><circle cx="278" cy="103" r="8" fill="#12B886"/><path d="M 274.4 103.2 L 277 105.8 L 281.8 100" fill="none" stroke="#fff" stroke-width="2" stroke-linecap="round" stroke-linejoin="round"/><line x1="293" y1="118.0" x2="310" y2="118.0" stroke="#98A2B3" stroke-width="2"/><path d="M 310 114.0 L 316 118.0 L 310 122.0 Z" fill="#98A2B3"/><rect x="314" y="90" width="116" height="56" rx="10" fill="#FDECEC" stroke="#F04438" stroke-width="1.5"/><text x="372.0" y="113" text-anchor="middle" font-family='Satoshi, Inter, -apple-system, BlinkMacSystemFont, "Segoe UI", Roboto, Helvetica, Arial, sans-serif' font-size="16" font-weight="700" fill="#B42318">Email</text><text x="372.0" y="132" text-anchor="middle" font-family='Satoshi, Inter, -apple-system, BlinkMacSystemFont, "Segoe UI", Roboto, Helvetica, Arial, sans-serif' font-size="12.5" font-weight="600" fill="#B42318">crash</text><circle cx="417" cy="103" r="8" fill="#F04438"/><path d="M 414 100 L 420 106 M 414 106 L 420 100" stroke="#fff" stroke-width="2" stroke-linecap="round"/><line x1="34" y1="172" x2="418" y2="172" stroke="#EAECF0" stroke-width="1.5" stroke-dasharray="2 4"/><rect x="174.0" y="162" width="104" height="21" rx="10.5" fill="#F9FAFB" stroke="#EAECF0"/><text x="219.0" y="176.5" text-anchor="middle" font-family='Satoshi, Inter, -apple-system, BlinkMacSystemFont, "Segoe UI", Roboto, Helvetica, Arial, sans-serif' font-size="12" font-weight="700" fill="#667085">on retry</text><path d="M 250.0 169 L 259.0 169 L 254.5 176 Z" fill="#667085"/><text x="36" y="206" text-anchor="start" font-family='Satoshi, Inter, -apple-system, BlinkMacSystemFont, "Segoe UI", Roboto, Helvetica, Arial, sans-serif' font-size="12.5" font-weight="700" fill="#667085" letter-spacing="1.2">RETRY</text><rect x="36" y="216" width="116" height="56" rx="10" fill="#FEF3E6" stroke="#F79009" stroke-width="1.5"/><text x="94.0" y="239" text-anchor="middle" font-family='Satoshi, Inter, -apple-system, BlinkMacSystemFont, "Segoe UI", Roboto, Helvetica, Arial, sans-serif' font-size="16" font-weight="700" fill="#B54708">Charge</text><text x="94.0" y="258" text-anchor="middle" font-family='Satoshi, Inter, -apple-system, BlinkMacSystemFont, "Segoe UI", Roboto, Helvetica, Arial, sans-serif' font-size="12.5" font-weight="600" fill="#B54708">runs again</text><line x1="154" y1="244.0" x2="171" y2="244.0" stroke="#98A2B3" stroke-width="2"/><path d="M 171 240.0 L 177 244.0 L 171 248.0 Z" fill="#98A2B3"/><rect x="175" y="216" width="116" height="56" rx="10" fill="#FEF3E6" stroke="#F79009" stroke-width="1.5"/><text x="233.0" y="239" text-anchor="middle" font-family='Satoshi, Inter, -apple-system, BlinkMacSystemFont, "Segoe UI", Roboto, Helvetica, Arial, sans-serif' font-size="16" font-weight="700" fill="#B54708">Reserve</text><text x="233.0" y="258" text-anchor="middle" font-family='Satoshi, Inter, -apple-system, BlinkMacSystemFont, "Segoe UI", Roboto, Helvetica, Arial, sans-serif' font-size="12.5" font-weight="600" fill="#B54708">runs again</text><line x1="293" y1="244.0" x2="310" y2="244.0" stroke="#98A2B3" stroke-width="2"/><path d="M 310 240.0 L 316 244.0 L 310 248.0 Z" fill="#98A2B3"/><rect x="314" y="216" width="116" height="56" rx="10" fill="#E7F8F0" stroke="#12B886" stroke-width="1.5"/><text x="372.0" y="239" text-anchor="middle" font-family='Satoshi, Inter, -apple-system, BlinkMacSystemFont, "Segoe UI", Roboto, Helvetica, Arial, sans-serif' font-size="16" font-weight="700" fill="#0B7A55">Email</text><text x="372.0" y="258" text-anchor="middle" font-family='Satoshi, Inter, -apple-system, BlinkMacSystemFont, "Segoe UI", Roboto, Helvetica, Arial, sans-serif' font-size="12.5" font-weight="600" fill="#0B7A55">sent</text><circle cx="417" cy="229" r="8" fill="#12B886"/><path d="M 413.4 229.2 L 416 231.8 L 420.8 226" fill="none" stroke="#fff" stroke-width="2" stroke-linecap="round" stroke-linejoin="round"/><rect x="34" y="288" width="384" height="34" rx="9" fill="#FDECEC" stroke="#F04438" stroke-width="1.2"/><text x="226.0" y="310" text-anchor="middle" font-family='Satoshi, Inter, -apple-system, BlinkMacSystemFont, "Segoe UI", Roboto, Helvetica, Arial, sans-serif' font-size="14.5" font-weight="700" fill="#B42318">Customer charged twice</text><rect x="478" y="14" width="432" height="324" rx="16" fill="#FFFFFF" stroke="#E4E7EC" stroke-width="1.5"/><path d="M 479.5 30 a14.5 14.5 0 0 1 14.5 -14.5 h 401 a14.5 14.5 0 0 1 14.5 14.5 v 26 h -429 z" fill="#E3F7EF"/><text x="694.0" y="40" text-anchor="middle" font-family='Satoshi, Inter, -apple-system, BlinkMacSystemFont, "Segoe UI", Roboto, Helvetica, Arial, sans-serif' font-size="16.5" font-weight="800" fill="#0B7A55">With durable execution</text><text x="504" y="80" text-anchor="start" font-family='Satoshi, Inter, -apple-system, BlinkMacSystemFont, "Segoe UI", Roboto, Helvetica, Arial, sans-serif' font-size="12.5" font-weight="700" fill="#667085" letter-spacing="1.2">FIRST ATTEMPT</text><rect x="504" y="90" width="116" height="56" rx="10" fill="#E7F8F0" stroke="#12B886" stroke-width="1.5"/><text x="562.0" y="113" text-anchor="middle" font-family='Satoshi, Inter, -apple-system, BlinkMacSystemFont, "Segoe UI", Roboto, Helvetica, Arial, sans-serif' font-size="16" font-weight="700" fill="#0B7A55">Charge</text><text x="562.0" y="132" text-anchor="middle" font-family='Satoshi, Inter, -apple-system, BlinkMacSystemFont, "Segoe UI", Roboto, Helvetica, Arial, sans-serif' font-size="12.5" font-weight="600" fill="#0B7A55">done</text><circle cx="607" cy="103" r="8" fill="#12B886"/><path d="M 603.4 103.2 L 606 105.8 L 610.8 100" fill="none" stroke="#fff" stroke-width="2" stroke-linecap="round" stroke-linejoin="round"/><line x1="622" y1="118.0" x2="639" y2="118.0" stroke="#98A2B3" stroke-width="2"/><path d="M 639 114.0 L 645 118.0 L 639 122.0 Z" fill="#98A2B3"/><rect x="643" y="90" width="116" height="56" rx="10" fill="#E7F8F0" stroke="#12B886" stroke-width="1.5"/><text x="701.0" y="113" text-anchor="middle" font-family='Satoshi, Inter, -apple-system, BlinkMacSystemFont, "Segoe UI", Roboto, Helvetica, Arial, sans-serif' font-size="16" font-weight="700" fill="#0B7A55">Reserve</text><text x="701.0" y="132" text-anchor="middle" font-family='Satoshi, Inter, -apple-system, BlinkMacSystemFont, "Segoe UI", Roboto, Helvetica, Arial, sans-serif' font-size="12.5" font-weight="600" fill="#0B7A55">done</text><circle cx="746" cy="103" r="8" fill="#12B886"/><path d="M 742.4 103.2 L 745 105.8 L 749.8 100" fill="none" stroke="#fff" stroke-width="2" stroke-linecap="round" stroke-linejoin="round"/><line x1="761" y1="118.0" x2="778" y2="118.0" stroke="#98A2B3" stroke-width="2"/><path d="M 778 114.0 L 784 118.0 L 778 122.0 Z" fill="#98A2B3"/><rect x="782" y="90" width="116" height="56" rx="10" fill="#FDECEC" stroke="#F04438" stroke-width="1.5"/><text x="840.0" y="113" text-anchor="middle" font-family='Satoshi, Inter, -apple-system, BlinkMacSystemFont, "Segoe UI", Roboto, Helvetica, Arial, sans-serif' font-size="16" font-weight="700" fill="#B42318">Email</text><text x="840.0" y="132" text-anchor="middle" font-family='Satoshi, Inter, -apple-system, BlinkMacSystemFont, "Segoe UI", Roboto, Helvetica, Arial, sans-serif' font-size="12.5" font-weight="600" fill="#B42318">crash</text><circle cx="885" cy="103" r="8" fill="#F04438"/><path d="M 882 100 L 888 106 M 882 106 L 888 100" stroke="#fff" stroke-width="2" stroke-linecap="round"/><line x1="502" y1="172" x2="886" y2="172" stroke="#EAECF0" stroke-width="1.5" stroke-dasharray="2 4"/><rect x="642.0" y="162" width="104" height="21" rx="10.5" fill="#F9FAFB" stroke="#EAECF0"/><text x="687.0" y="176.5" text-anchor="middle" font-family='Satoshi, Inter, -apple-system, BlinkMacSystemFont, "Segoe UI", Roboto, Helvetica, Arial, sans-serif' font-size="12" font-weight="700" fill="#667085">on retry</text><path d="M 718.0 169 L 727.0 169 L 722.5 176 Z" fill="#667085"/><text x="504" y="206" text-anchor="start" font-family='Satoshi, Inter, -apple-system, BlinkMacSystemFont, "Segoe UI", Roboto, Helvetica, Arial, sans-serif' font-size="12.5" font-weight="700" fill="#667085" letter-spacing="1.2">RETRY</text><rect x="504" y="216" width="116" height="56" rx="10" fill="#F2F4F7" stroke="#D0D5DD" stroke-width="1.5" stroke-dasharray="5 4"/><text x="562.0" y="239" text-anchor="middle" font-family='Satoshi, Inter, -apple-system, BlinkMacSystemFont, "Segoe UI", Roboto, Helvetica, Arial, sans-serif' font-size="16" font-weight="700" fill="#667085">Charge</text><text x="562.0" y="258" text-anchor="middle" font-family='Satoshi, Inter, -apple-system, BlinkMacSystemFont, "Segoe UI", Roboto, Helvetica, Arial, sans-serif' font-size="12.5" font-weight="600" fill="#667085">skipped</text><line x1="622" y1="244.0" x2="639" y2="244.0" stroke="#98A2B3" stroke-width="2"/><path d="M 639 240.0 L 645 244.0 L 639 248.0 Z" fill="#98A2B3"/><rect x="643" y="216" width="116" height="56" rx="10" fill="#F2F4F7" stroke="#D0D5DD" stroke-width="1.5" stroke-dasharray="5 4"/><text x="701.0" y="239" text-anchor="middle" font-family='Satoshi, Inter, -apple-system, BlinkMacSystemFont, "Segoe UI", Roboto, Helvetica, Arial, sans-serif' font-size="16" font-weight="700" fill="#667085">Reserve</text><text x="701.0" y="258" text-anchor="middle" font-family='Satoshi, Inter, -apple-system, BlinkMacSystemFont, "Segoe UI", Roboto, Helvetica, Arial, sans-serif' font-size="12.5" font-weight="600" fill="#667085">skipped</text><line x1="761" y1="244.0" x2="778" y2="244.0" stroke="#98A2B3" stroke-width="2"/><path d="M 778 240.0 L 784 244.0 L 778 248.0 Z" fill="#98A2B3"/><rect x="782" y="216" width="116" height="56" rx="10" fill="#E7F8F0" stroke="#12B886" stroke-width="1.5"/><text x="840.0" y="239" text-anchor="middle" font-family='Satoshi, Inter, -apple-system, BlinkMacSystemFont, "Segoe UI", Roboto, Helvetica, Arial, sans-serif' font-size="16" font-weight="700" fill="#0B7A55">Email</text><text x="840.0" y="258" text-anchor="middle" font-family='Satoshi, Inter, -apple-system, BlinkMacSystemFont, "Segoe UI", Roboto, Helvetica, Arial, sans-serif' font-size="12.5" font-weight="600" fill="#0B7A55">sent</text><circle cx="885" cy="229" r="8" fill="#12B886"/><path d="M 881.4 229.2 L 884 231.8 L 888.8 226" fill="none" stroke="#fff" stroke-width="2" stroke-linecap="round" stroke-linejoin="round"/><rect x="502" y="288" width="384" height="34" rx="9" fill="#E7F8F0" stroke="#12B886" stroke-width="1.2"/><text x="694.0" y="310" text-anchor="middle" font-family='Satoshi, Inter, -apple-system, BlinkMacSystemFont, "Segoe UI", Roboto, Helvetica, Arial, sans-serif' font-size="14.5" font-weight="700" fill="#0B7A55">Charged once, resumes at Email</text></svg>