<svg xmlns="http://www.w3.org/2000/svg" width="920" height="428" viewBox="0 0 920 428" style="max-width:100%;height:auto;" role="img" aria-label="Architecture comparison: self-hosted Temporal needs a four-service cluster plus its own persistence database, while JobRunr embeds in your application and uses your existing database"><rect x="10" y="14" width="432" height="400" rx="16" fill="#FFFFFF" stroke="#E4E7EC" stroke-width="1.5"/><path d="M 11.5 30 a14.5 14.5 0 0 1 14.5 -14.5 h 401 a14.5 14.5 0 0 1 14.5 14.5 v 26 h -429 z" fill="#FEF3E6"/><text x="226" y="40" text-anchor="middle" font-family='Satoshi, Inter, -apple-system, BlinkMacSystemFont, "Segoe UI", Roboto, Helvetica, Arial, sans-serif' font-size="16.5" font-weight="800" fill="#B54708">With Temporal</text><rect x="36" y="74" width="382" height="52" rx="10" fill="#E7F8F0" stroke="#12B886" stroke-width="1.5"/><text x="227" y="96" text-anchor="middle" font-family='Satoshi, Inter, -apple-system, BlinkMacSystemFont, "Segoe UI", Roboto, Helvetica, Arial, sans-serif' font-size="15" font-weight="700" fill="#0B7A55">Your application + worker fleet</text><text x="227" y="114" text-anchor="middle" font-family='Satoshi, Inter, -apple-system, BlinkMacSystemFont, "Segoe UI", Roboto, Helvetica, Arial, sans-serif' font-size="12.5" font-weight="600" fill="#0B7A55">polls Temporal task queues over gRPC</text><line x1="227" y1="128" x2="227" y2="142" stroke="#98A2B3" stroke-width="2"/><path d="M 223 142 L 231 142 L 227 148 Z" fill="#98A2B3"/><rect x="36" y="152" width="382" height="114" rx="10" fill="#FEF3E6" stroke="#F79009" stroke-width="1.5"/><text x="227" y="172" text-anchor="middle" font-family='Satoshi, Inter, -apple-system, BlinkMacSystemFont, "Segoe UI", Roboto, Helvetica, Arial, sans-serif' font-size="11.5" font-weight="700" fill="#B54708" letter-spacing="1.2">NEW: TEMPORAL CLUSTER</text><rect x="50" y="182" width="176" height="34" rx="8" fill="#FFFFFF" stroke="#F79009" stroke-width="1.2"/><text x="138" y="204" text-anchor="middle" font-family='Satoshi, Inter, -apple-system, BlinkMacSystemFont, "Segoe UI", Roboto, Helvetica, Arial, sans-serif' font-size="13" font-weight="700" fill="#B54708">Frontend service</text><rect x="228" y="182" width="176" height="34" rx="8" fill="#FFFFFF" stroke="#F79009" stroke-width="1.2"/><text x="316" y="204" text-anchor="middle" font-family='Satoshi, Inter, -apple-system, BlinkMacSystemFont, "Segoe UI", Roboto, Helvetica, Arial, sans-serif' font-size="13" font-weight="700" fill="#B54708">History service</text><rect x="50" y="222" width="176" height="34" rx="8" fill="#FFFFFF" stroke="#F79009" stroke-width="1.2"/><text x="138" y="244" text-anchor="middle" font-family='Satoshi, Inter, -apple-system, BlinkMacSystemFont, "Segoe UI", Roboto, Helvetica, Arial, sans-serif' font-size="13" font-weight="700" fill="#B54708">Matching service</text><rect x="228" y="222" width="176" height="34" rx="8" fill="#FFFFFF" stroke="#F79009" stroke-width="1.2"/><text x="316" y="244" text-anchor="middle" font-family='Satoshi, Inter, -apple-system, BlinkMacSystemFont, "Segoe UI", Roboto, Helvetica, Arial, sans-serif' font-size="13" font-weight="700" fill="#B54708">Worker service</text><line x1="227" y1="268" x2="227" y2="282" stroke="#98A2B3" stroke-width="2"/><path d="M 223 282 L 231 282 L 227 288 Z" fill="#98A2B3"/><rect x="36" y="292" width="382" height="52" rx="10" fill="#FEF3E6" stroke="#F79009" stroke-width="1.5"/><text x="227" y="313" text-anchor="middle" font-family='Satoshi, Inter, -apple-system, BlinkMacSystemFont, "Segoe UI", Roboto, Helvetica, Arial, sans-serif' font-size="14" font-weight="700" fill="#B54708">Temporal persistence database</text><text x="227" y="331" text-anchor="middle" font-family='Satoshi, Inter, -apple-system, BlinkMacSystemFont, "Segoe UI", Roboto, Helvetica, Arial, sans-serif' font-size="11.5" font-weight="600" fill="#B54708">its own store, next to the one your app already has</text><rect x="34" y="364" width="384" height="34" rx="9" fill="#FEF3E6" stroke="#F79009" stroke-width="1.2"/><text x="226" y="386" text-anchor="middle" font-family='Satoshi, Inter, -apple-system, BlinkMacSystemFont, "Segoe UI", Roboto, Helvetica, Arial, sans-serif' font-size="14.5" font-weight="700" fill="#B54708">Four services plus a database to operate</text><rect x="478" y="14" width="432" height="400" rx="16" fill="#FFFFFF" stroke="#E4E7EC" stroke-width="1.5"/><path d="M 479.5 30 a14.5 14.5 0 0 1 14.5 -14.5 h 401 a14.5 14.5 0 0 1 14.5 14.5 v 26 h -429 z" fill="#E3F7EF"/><text x="694" y="40" text-anchor="middle" font-family='Satoshi, Inter, -apple-system, BlinkMacSystemFont, "Segoe UI", Roboto, Helvetica, Arial, sans-serif' font-size="16.5" font-weight="800" fill="#0B7A55">With JobRunr</text><rect x="504" y="74" width="382" height="52" rx="10" fill="#E7F8F0" stroke="#12B886" stroke-width="1.5"/><text x="695" y="96" text-anchor="middle" font-family='Satoshi, Inter, -apple-system, BlinkMacSystemFont, "Segoe UI", Roboto, Helvetica, Arial, sans-serif' font-size="15" font-weight="700" fill="#0B7A55">Your application</text><text x="695" y="114" text-anchor="middle" font-family='Satoshi, Inter, -apple-system, BlinkMacSystemFont, "Segoe UI", Roboto, Helvetica, Arial, sans-serif' font-size="12.5" font-weight="600" fill="#0B7A55">JobRunr embedded as a library</text><line x1="695" y1="128" x2="695" y2="142" stroke="#98A2B3" stroke-width="2"/><path d="M 691 142 L 699 142 L 695 148 Z" fill="#98A2B3"/><rect x="504" y="152" width="382" height="52" rx="10" fill="#E7F8F0" stroke="#12B886" stroke-width="1.5"/><text x="695" y="174" text-anchor="middle" font-family='Satoshi, Inter, -apple-system, BlinkMacSystemFont, "Segoe UI", Roboto, Helvetica, Arial, sans-serif' font-size="15" font-weight="700" fill="#0B7A55">Your existing database</text><text x="695" y="192" text-anchor="middle" font-family='Satoshi, Inter, -apple-system, BlinkMacSystemFont, "Segoe UI", Roboto, Helvetica, Arial, sans-serif' font-size="12.5" font-weight="600" fill="#0B7A55">the SQL or NoSQL store your app already uses</text><rect x="504" y="226" width="382" height="118" rx="10" fill="#F9FAFB" stroke="#D0D5DD" stroke-width="1.5" stroke-dasharray="5 4"/><text x="695" y="278" text-anchor="middle" font-family='Satoshi, Inter, -apple-system, BlinkMacSystemFont, "Segoe UI", Roboto, Helvetica, Arial, sans-serif' font-size="14" font-weight="700" fill="#98A2B3">No cluster. No broker. No Redis.</text><text x="695" y="298" text-anchor="middle" font-family='Satoshi, Inter, -apple-system, BlinkMacSystemFont, "Segoe UI", Roboto, Helvetica, Arial, sans-serif' font-size="12.5" font-weight="600" fill="#98A2B3">No search service. No new failure modes.</text><rect x="502" y="364" width="384" height="34" rx="9" fill="#E7F8F0" stroke="#12B886" stroke-width="1.2"/><text x="694" y="386" text-anchor="middle" font-family='Satoshi, Inter, -apple-system, BlinkMacSystemFont, "Segoe UI", Roboto, Helvetica, Arial, sans-serif' font-size="14.5" font-weight="700" fill="#0B7A55">Zero new infrastructure to operate</text></svg>
