<svg xmlns="http://www.w3.org/2000/svg" width="920" height="484" viewBox="0 0 920 484" style="max-width:100%;height:auto;" role="img" aria-label="Decision tree: if your orchestration branches deeply and needs full replay and versioning, spans several languages, or needs signals, queries and child workflows, pick a workflow engine; otherwise pick a database-backed scheduler like JobRunr"><rect x="10" y="14" width="900" height="456" rx="16" fill="#FFFFFF" stroke="#E4E7EC" stroke-width="1.5"/><path d="M 11.5 30 a14.5 14.5 0 0 1 14.5 -14.5 h 869 a14.5 14.5 0 0 1 14.5 14.5 v 26 h -897 z" fill="#F2F4F7"/><text x="460" y="40" text-anchor="middle" font-family='Satoshi, Inter, -apple-system, BlinkMacSystemFont, "Segoe UI", Roboto, Helvetica, Arial, sans-serif' font-size="16.5" font-weight="800" fill="#344054">So which one do you actually need?</text><rect x="100" y="74" width="360" height="44" rx="10" fill="#F9FAFB" stroke="#D0D5DD" stroke-width="1.5"/><text x="280" y="101" text-anchor="middle" font-family='Satoshi, Inter, -apple-system, BlinkMacSystemFont, "Segoe UI", Roboto, Helvetica, Arial, sans-serif' font-size="14.5" font-weight="700" fill="#344054">You need reliable background work</text><line x1="280" y1="118" x2="280" y2="131" stroke="#98A2B3" stroke-width="2"/><path d="M 276 131 L 284 131 L 280 137 Z" fill="#98A2B3"/><rect x="100" y="138" width="360" height="56" rx="10" fill="#FFFFFF" stroke="#98A2B3" stroke-width="1.5"/><text x="280" y="161" text-anchor="middle" font-family='Satoshi, Inter, -apple-system, BlinkMacSystemFont, "Segoe UI", Roboto, Helvetica, Arial, sans-serif' font-size="13.5" font-weight="700" fill="#344054">Deeply branching orchestration that needs</text><text x="280" y="180" text-anchor="middle" font-family='Satoshi, Inter, -apple-system, BlinkMacSystemFont, "Segoe UI", Roboto, Helvetica, Arial, sans-serif' font-size="13.5" font-weight="700" fill="#344054">full replay and workflow versioning?</text><path d="M 460 166 L 590 166 L 590 246" fill="none" stroke="#98A2B3" stroke-width="2"/><rect x="478" y="156" width="40" height="20" rx="10" fill="#F9FAFB" stroke="#EAECF0"/><text x="498" y="170" text-anchor="middle" font-family='Satoshi, Inter, -apple-system, BlinkMacSystemFont, "Segoe UI", Roboto, Helvetica, Arial, sans-serif' font-size="11.5" font-weight="700" fill="#667085">yes</text><line x1="280" y1="194" x2="280" y2="211" stroke="#98A2B3" stroke-width="2"/><path d="M 276 211 L 284 211 L 280 217 Z" fill="#98A2B3"/><rect x="292" y="193" width="36" height="20" rx="10" fill="#F9FAFB" stroke="#EAECF0"/><text x="310" y="207" text-anchor="middle" font-family='Satoshi, Inter, -apple-system, BlinkMacSystemFont, "Segoe UI", Roboto, Helvetica, Arial, sans-serif' font-size="11.5" font-weight="700" fill="#667085">no</text><rect x="100" y="218" width="360" height="56" rx="10" fill="#FFFFFF" stroke="#98A2B3" stroke-width="1.5"/><text x="280" y="241" text-anchor="middle" font-family='Satoshi, Inter, -apple-system, BlinkMacSystemFont, "Segoe UI", Roboto, Helvetica, Arial, sans-serif' font-size="13.5" font-weight="700" fill="#344054">One workflow coordinating services</text><text x="280" y="260" text-anchor="middle" font-family='Satoshi, Inter, -apple-system, BlinkMacSystemFont, "Segoe UI", Roboto, Helvetica, Arial, sans-serif' font-size="13.5" font-weight="700" fill="#344054">written in several languages?</text><line x1="460" y1="246" x2="608" y2="246" stroke="#98A2B3" stroke-width="2"/><path d="M 608 242 L 616 246 L 608 250 Z" fill="#98A2B3"/><rect x="478" y="236" width="40" height="20" rx="10" fill="#F9FAFB" stroke="#EAECF0"/><text x="498" y="250" text-anchor="middle" font-family='Satoshi, Inter, -apple-system, BlinkMacSystemFont, "Segoe UI", Roboto, Helvetica, Arial, sans-serif' font-size="11.5" font-weight="700" fill="#667085">yes</text><line x1="280" y1="274" x2="280" y2="291" stroke="#98A2B3" stroke-width="2"/><path d="M 276 291 L 284 291 L 280 297 Z" fill="#98A2B3"/><rect x="292" y="273" width="36" height="20" rx="10" fill="#F9FAFB" stroke="#EAECF0"/><text x="310" y="287" text-anchor="middle" font-family='Satoshi, Inter, -apple-system, BlinkMacSystemFont, "Segoe UI", Roboto, Helvetica, Arial, sans-serif' font-size="11.5" font-weight="700" fill="#667085">no</text><rect x="100" y="298" width="360" height="56" rx="10" fill="#FFFFFF" stroke="#98A2B3" stroke-width="1.5"/><text x="280" y="321" text-anchor="middle" font-family='Satoshi, Inter, -apple-system, BlinkMacSystemFont, "Segoe UI", Roboto, Helvetica, Arial, sans-serif' font-size="13.5" font-weight="700" fill="#344054">Do you need signals, queries and child</text><text x="280" y="340" text-anchor="middle" font-family='Satoshi, Inter, -apple-system, BlinkMacSystemFont, "Segoe UI", Roboto, Helvetica, Arial, sans-serif' font-size="13.5" font-weight="700" fill="#344054">workflows as first-class primitives?</text><path d="M 460 326 L 590 326 L 590 246" fill="none" stroke="#98A2B3" stroke-width="2"/><rect x="478" y="316" width="40" height="20" rx="10" fill="#F9FAFB" stroke="#EAECF0"/><text x="498" y="330" text-anchor="middle" font-family='Satoshi, Inter, -apple-system, BlinkMacSystemFont, "Segoe UI", Roboto, Helvetica, Arial, sans-serif' font-size="11.5" font-weight="700" fill="#667085">yes</text><line x1="280" y1="354" x2="280" y2="371" stroke="#98A2B3" stroke-width="2"/><path d="M 276 371 L 284 371 L 280 377 Z" fill="#98A2B3"/><rect x="292" y="353" width="36" height="20" rx="10" fill="#F9FAFB" stroke="#EAECF0"/><text x="310" y="367" text-anchor="middle" font-family='Satoshi, Inter, -apple-system, BlinkMacSystemFont, "Segoe UI", Roboto, Helvetica, Arial, sans-serif' font-size="11.5" font-weight="700" fill="#667085">no</text><rect x="100" y="382" width="360" height="60" rx="10" fill="#E7F8F0" stroke="#12B886" stroke-width="1.5"/><text x="280" y="407" text-anchor="middle" font-family='Satoshi, Inter, -apple-system, BlinkMacSystemFont, "Segoe UI", Roboto, Helvetica, Arial, sans-serif' font-size="15" font-weight="700" fill="#0B7A55">Database-backed scheduler</text><text x="280" y="426" text-anchor="middle" font-family='Satoshi, Inter, -apple-system, BlinkMacSystemFont, "Segoe UI", Roboto, Helvetica, Arial, sans-serif' font-size="12.5" font-weight="600" fill="#0B7A55">JobRunr with runStepOnce, on your existing database</text><rect x="616" y="196" width="254" height="100" rx="10" fill="#FEF3E6" stroke="#F79009" stroke-width="1.5"/><text x="743" y="240" text-anchor="middle" font-family='Satoshi, Inter, -apple-system, BlinkMacSystemFont, "Segoe UI", Roboto, Helvetica, Arial, sans-serif' font-size="15" font-weight="700" fill="#B54708">Workflow engine</text><text x="743" y="260" text-anchor="middle" font-family='Satoshi, Inter, -apple-system, BlinkMacSystemFont, "Segoe UI", Roboto, Helvetica, Arial, sans-serif' font-size="12.5" font-weight="600" fill="#B54708">Temporal or Restate</text></svg>
