<svg xmlns="http://www.w3.org/2000/svg" viewBox="0 0 16 16" xmlns:v="https://vecta.io/nano"><circle cx="8" cy="8" r="8" fill="#7e8fa4"/><path d="M5.44 5.02a4.57 4.57 0 0 1 .49-.38 3.66 3.66 0 0 1 .59-.31 2.61 2.61 0 0 1 .67-.21 3.86 3.86 0 0 1 1.85.08 2.14 2.14 0 0 1 .8.46 2 2 0 0 1 .54.72 2.27 2.27 0 0 1 .18.93 2.4 2.4 0 0 1-.15.88 2.63 2.63 0 0 1-.36.63 3.63 3.63 0 0 1-.48.48l-.5.37a4.36 4.36 0 0 0-.4.35.62.62 0 0 0-.2.38l-.15 1H7.23l-.11-1.09a.81.81 0 0 1 .08-.55 2 2 0 0 1 .34-.42 4.3 4.3 0 0 1 .49-.38 3.88 3.88 0 0 0 .49-.4 2.27 2.27 0 0 0 .4-.48 1.44 1.44 0 0 0 .15-.65 1 1 0 0 0-.09-.42.9.9 0 0 0-.25-.33 1.28 1.28 0 0 0-.38-.21 1.55 1.55 0 0 0-.48-.07 1.94 1.94 0 0 0-.64.09 1.77 1.77 0 0 0-.45.18l-.3.19a.48.48 0 0 1-.23.07.35.35 0 0 1-.34-.2zm1.42 7a1.53 1.53 0 0 1 .07-.36 1.12 1.12 0 0 1 .19-.29 1.17 1.17 0 0 1 .3-.19.9.9 0 0 1 .72 0 1.17 1.17 0 0 1 .3.19.81.81 0 0 1 .19.29.85.85 0 0 1 0 .73.77.77 0 0 1-.19.28.88.88 0 0 1-.3.2 1 1 0 0 1-.72 0 .75.75 0 0 1-.3-.2 1.07 1.07 0 0 1-.19-.28 1.16 1.16 0 0 1-.07-.37z" fill="#fff"/></svg>