<svg xmlns="http://www.w3.org/2000/svg" xml:space="preserve" viewBox="0 0 68 29">
  <g fill="#00A4E0">
    <path d="M36.93 23.69c-2.23 0-4.49-1.46-6.07-2.51a8.54 8.54 0 0 0-4.86-1.7c-1.8.07-3.55.67-5 1.74-1.79 1.09-3.57 2.39-7 2.39-5.83 0-9.15-4-9.15-9.56a8.923 8.923 0 0 1 8.54-9.3c.15-.01.31-.01.46-.01 2.68-.14 5.31.78 7.33 2.55l2.67-3.81c-2.8-2.34-6.35-3.57-10-3.48C6.3-.1.1 5.93 0 13.48v.57c0 8.34 5.71 14.3 14 14.3 2.77-.03 5.47-.84 7.79-2.35 1.33-.85 2.59-1.87 4-1.87s2.14.49 3.92 1.67 4.13 2.55 6.81 2.55c2.67-.02 5.24-1 7.25-2.76l-2.64-3.4a6.403 6.403 0 0 1-4.2 1.5z"/>
    <path d="m60.54 12.51-3-1.25c-2.39-1-3.92-1.66-3.92-3.48s1.7-3.29 4.85-3.29c1.98.05 3.89.75 5.43 2l2.59-3.56A13.41 13.41 0 0 0 58.07 0c-5.22 0-9.15 3.4-9.15 8.1 0 3.81 3.16 5.87 6 7.13l1.78.77c3.93 1.7 5.71 2.34 5.71 4.45 0 1.78-1.66 3.28-4.86 3.28-3.64 0-6.23-2.19-8.5-4.94-3.16-3.64-5.31-5.43-10-6.76-5-1.38-6.4-2.31-6.4-4.25 0-1.79 1.7-3.29 4.86-3.29 1.98.05 3.88.76 5.42 2l2.6-3.56C43.13 1.02 40.16-.01 37.09 0c-5.22 0-9.15 3.4-9.15 8.1 0 5.34 4.9 7.05 9 8.22s6.12 2.35 9 6.24c2.69 3.67 6.99 5.82 11.54 5.79 5.83 0 9.84-3 9.84-8-.06-2.86-1.52-5.61-6.78-7.84z"/>
  </g>
</svg>