<?xml version="1.0" encoding="utf-8"?>
<svg version="1.1" id="Ebene_1" xmlns="http://www.w3.org/2000/svg" xmlns:xlink="http://www.w3.org/1999/xlink" x="0px" y="0px"
     viewBox="0 0 144 48" style="enable-background:new 0 0 144 48;" xml:space="preserve">
<style type="text/css">
	.st0{fill:#009EE3;}
	.st1{clip-path:url(#SVGID_2_);fill:#FFFFFF;}
</style>
    <rect class="st0" width="144" height="48"/>
    <g>
	<g>
		<g>
			<defs>
				<rect id="SVGID_1_" width="144" height="48"/>
			</defs>
            <clipPath id="SVGID_2_">
				<use xlink:href="#SVGID_1_"  style="overflow:visible;"/>
			</clipPath>
            <path class="st1" d="M49.11,21.7c0,0.02,0,0.03,0,0.05c0,0.04,0,0.09-0.01,0.13c0,0.01,0,0.01,0,0.02v0.01c0,0.02,0,0.05,0,0.07
				c0,0.04-0.01,0.08-0.01,0.12c0,0.01,0,0.01,0,0.02c0,0.05-0.01,0.11-0.02,0.16c0,0.03-0.01,0.06-0.01,0.1
				c-0.01,0.06-0.02,0.12-0.03,0.19c-0.01,0.06-0.02,0.12-0.03,0.18v0.01c0,0.01,0,0.02-0.01,0.03c-0.01,0.06-0.02,0.11-0.04,0.17
				c-0.01,0.07-0.03,0.14-0.05,0.21c-0.01,0.05-0.03,0.11-0.04,0.16c-0.01,0.04-0.02,0.07-0.03,0.11c0,0.02-0.01,0.03-0.01,0.05
				c-0.03,0.09-0.05,0.18-0.08,0.26c-0.01,0.04-0.03,0.08-0.04,0.13c-0.02,0.07-0.05,0.13-0.07,0.2c-0.03,0.07-0.06,0.15-0.09,0.22
				c-0.03,0.08-0.07,0.15-0.1,0.23c-0.03,0.07-0.06,0.14-0.1,0.21c-0.04,0.08-0.08,0.17-0.13,0.25c-0.04,0.07-0.07,0.14-0.11,0.21
				c0,0.01-0.01,0.01-0.01,0.01c-0.03,0.06-0.07,0.12-0.1,0.17c-0.05,0.09-0.1,0.17-0.16,0.26c-0.04,0.06-0.07,0.11-0.11,0.17
				c-0.06,0.09-0.12,0.19-0.19,0.28c-0.04,0.06-0.09,0.12-0.13,0.18c-0.14,0.2-0.3,0.39-0.46,0.58c-0.03,0.03-0.06,0.07-0.09,0.1
				c-0.1,0.12-0.2,0.23-0.3,0.35c-0.05,0.06-0.1,0.11-0.16,0.17v0.01c-0.05,0.06-0.11,0.11-0.16,0.17l-0.01,0.01
				c-0.04,0.04-0.08,0.08-0.12,0.12c-0.03,0.03-0.07,0.07-0.1,0.1c-0.07,0.07-0.13,0.13-0.2,0.19c-0.04,0.04-0.08,0.08-0.12,0.11
				c-0.07,0.07-0.15,0.13-0.22,0.2c-0.05,0.05-0.11,0.1-0.16,0.14c-0.04,0.04-0.09,0.08-0.14,0.11c-0.06,0.05-0.12,0.1-0.18,0.15
				c0,0-0.01,0-0.01,0.01c-0.07,0.06-0.14,0.11-0.21,0.17c-0.08,0.06-0.15,0.12-0.23,0.18c-0.17,0.13-0.34,0.25-0.51,0.38
				c-0.07,0.05-0.13,0.09-0.2,0.14c-0.08,0.06-0.16,0.11-0.25,0.17c-0.09,0.06-0.19,0.13-0.29,0.19c-0.11,0.07-0.22,0.14-0.34,0.21
				c-0.2,0.12-0.4,0.24-0.61,0.36c-0.06,0.03-0.12,0.07-0.18,0.1c-0.04,0.02-0.07,0.04-0.11,0.06c-0.05,0.03-0.11,0.06-0.17,0.09
				c-0.01,0.01-0.02,0.01-0.02,0.01c-0.12,0.06-0.24,0.13-0.36,0.19c-0.01,0-0.01,0-0.01,0.01c-0.06,0.03-0.13,0.06-0.19,0.1
				c-0.06,0.03-0.13,0.06-0.19,0.09c-0.1,0.05-0.21,0.1-0.31,0.15c-0.14,0.06-0.27,0.13-0.41,0.19c-0.07,0.03-0.14,0.06-0.21,0.09
				c-0.14,0.06-0.27,0.12-0.41,0.17c-0.08,0.03-0.16,0.07-0.24,0.1c0,0,0,0-0.01,0c-0.08,0.03-0.15,0.06-0.23,0.09l0,0
				c-0.1,0.04-0.19,0.07-0.29,0.11c-0.1,0.04-0.19,0.07-0.29,0.1c-0.09,0.03-0.18,0.07-0.28,0.1c-0.02,0.01-0.03,0.01-0.05,0.02
				c0,0,0,0-0.01,0c-0.08,0.03-0.15,0.05-0.23,0.08c-0.15,0.05-0.31,0.1-0.47,0.15c-0.08,0.02-0.17,0.05-0.26,0.08
				c-0.07,0.02-0.15,0.04-0.22,0.06c-0.11,0.03-0.21,0.06-0.32,0.09c-0.48,0.13-0.96,0.24-1.46,0.35c-0.61,0.13-1.21,0.23-1.81,0.31
				h-0.01c-0.6,0.08-1.18,0.14-1.76,0.17l0.56-1.53L37,19.42l2.16-5.93l0.04-0.11c0.16,0.02,0.32,0.04,0.48,0.07
				c0.08,0.01,0.15,0.02,0.22,0.04h0.01c0.12,0.02,0.25,0.04,0.37,0.07c0.11,0.02,0.22,0.04,0.32,0.06c0.02,0,0.04,0.01,0.05,0.01
				c0.02,0,0.03,0.01,0.05,0.01c0.07,0.01,0.14,0.03,0.21,0.05c0.06,0.01,0.13,0.03,0.19,0.04c0.06,0.01,0.12,0.03,0.18,0.04
				c0.06,0.01,0.12,0.03,0.18,0.05c0.09,0.02,0.17,0.05,0.26,0.07c0.07,0.02,0.14,0.04,0.22,0.06c0.07,0.02,0.14,0.04,0.22,0.07
				c0.07,0.02,0.14,0.04,0.21,0.07c0.07,0.02,0.14,0.04,0.21,0.07c0.07,0.02,0.14,0.05,0.21,0.07s0.14,0.05,0.2,0.07
				c0.07,0.02,0.14,0.05,0.2,0.08c0.05,0.02,0.1,0.04,0.14,0.06c0.09,0.03,0.17,0.07,0.26,0.11c0.04,0.02,0.09,0.04,0.13,0.06
				c0.02,0.01,0.04,0.02,0.06,0.03c0.07,0.03,0.13,0.06,0.19,0.09c0.13,0.06,0.25,0.12,0.37,0.18c0.06,0.03,0.12,0.06,0.18,0.09
				c0.3,0.16,0.6,0.32,0.87,0.5c0.06,0.03,0.11,0.07,0.17,0.11c0.11,0.07,0.21,0.14,0.32,0.22c0.05,0.04,0.1,0.07,0.16,0.11
				c0.05,0.04,0.1,0.08,0.15,0.12c0.05,0.04,0.1,0.08,0.15,0.12c0.05,0.04,0.1,0.08,0.14,0.12c0.06,0.05,0.13,0.11,0.19,0.16
				c0.08,0.07,0.15,0.14,0.23,0.21c0.04,0.04,0.09,0.08,0.13,0.13c0.02,0.02,0.04,0.04,0.06,0.06c0.04,0.04,0.08,0.08,0.11,0.12
				c0.03,0.03,0.05,0.06,0.08,0.08c0.04,0.04,0.08,0.09,0.12,0.13s0.07,0.08,0.1,0.12c0.09,0.11,0.18,0.22,0.27,0.34
				c0,0,0,0.01,0.01,0.01c0.02,0.02,0.04,0.05,0.05,0.07c0.02,0.03,0.04,0.05,0.06,0.08l0.01,0.01c0.08,0.12,0.16,0.24,0.24,0.36
				c0,0,0,0.01,0.01,0.01c0.02,0.03,0.03,0.05,0.05,0.08c0.03,0.05,0.06,0.1,0.08,0.15c0,0.01,0.01,0.02,0.01,0.02
				c0.04,0.06,0.07,0.13,0.11,0.19c0,0.01,0.01,0.02,0.01,0.03c0.03,0.07,0.07,0.13,0.1,0.2c0,0,0,0.01,0.01,0.01
				c0.04,0.07,0.07,0.15,0.1,0.22c0,0,0,0,0,0.01c0.03,0.07,0.06,0.15,0.09,0.22c0.03,0.08,0.06,0.15,0.08,0.23
				c0.02,0.08,0.05,0.16,0.07,0.23c0.02,0.08,0.04,0.16,0.06,0.24c0.01,0.03,0.01,0.06,0.02,0.09c0.01,0.05,0.02,0.1,0.03,0.15
				C49.08,20.71,49.12,21.2,49.11,21.7 M53.7,27.01c0.2-0.26,0.38-0.52,0.55-0.79c0.04-0.06,0.08-0.12,0.11-0.18
				c0.05-0.08,0.1-0.16,0.15-0.24s0.1-0.16,0.14-0.24s0.09-0.16,0.13-0.24c0.07-0.13,0.13-0.26,0.2-0.38
				c0.03-0.06,0.06-0.12,0.09-0.18c0.06-0.13,0.12-0.27,0.18-0.4c0.02-0.04,0.03-0.08,0.05-0.12c0.03-0.07,0.06-0.14,0.08-0.21
				c0.03-0.07,0.06-0.15,0.08-0.22c0.03-0.07,0.05-0.14,0.07-0.21s0.05-0.14,0.07-0.21c0.02-0.05,0.03-0.11,0.05-0.16
				c0.01-0.03,0.02-0.05,0.02-0.08c0.01-0.05,0.03-0.1,0.04-0.15c0.01-0.03,0.01-0.06,0.02-0.08c0.01-0.04,0.02-0.08,0.03-0.13
				c0.02-0.07,0.03-0.14,0.05-0.21c0.02-0.08,0.04-0.17,0.05-0.25c0.02-0.09,0.03-0.19,0.05-0.28c0.01-0.06,0.02-0.13,0.03-0.19
				c0.01-0.06,0.01-0.11,0.02-0.16c0-0.01,0-0.02,0-0.03c0.01-0.05,0.01-0.1,0.01-0.15c0.01-0.06,0.01-0.13,0.01-0.19
				c0-0.08,0.01-0.17,0.01-0.25v-0.01c0-0.08,0-0.17,0-0.25c0-0.47-0.04-0.95-0.13-1.42c-0.84-4.66-5.69-8.01-12.28-9.19
				c-1-0.18-2.04-0.31-3.11-0.38l0.96-2.64h-4.91l-0.76,2.08l-0.18,0.49C35.06,9.78,34.53,9.8,34,9.83
				c-1.85,0.11-3.64,0.32-5.36,0.61c-1.79,0.3-3.51,0.7-5.12,1.18c-1.53,0.45-2.97,0.98-4.29,1.56l0.8,1.58l1.16,2.3
				c2.41-1.4,5.36-2.53,8.64-3.21c1.53-0.32,3.04-0.52,4.49-0.61l-0.07,0.18l-2.44,6.72l-4.51,12.4l-0.45,1.24l-0.04,0.12l-0.1,0.28
				l0,0l-0.73,2.02c0.81,0.03,1.63,0.05,2.45,0.04c0.83,0,1.65-0.03,2.47-0.07c6.57-0.32,12.42-1.81,16.64-4.02l0,0
				c0.85-0.45,1.64-0.92,2.36-1.43c0.94-0.66,1.75-1.36,2.41-2.11c0.19-0.19,0.37-0.39,0.54-0.59c0.08-0.09,0.16-0.18,0.23-0.27
				c0.05-0.05,0.09-0.11,0.14-0.16c0.04-0.04,0.07-0.08,0.11-0.13c0.06-0.08,0.13-0.16,0.19-0.23
				C53.59,27.15,53.65,27.08,53.7,27.01 M95.2,31.15c1.08-2.89,2.93-4.75,2.93-4.75l0,0c0.07-0.08,0.15-0.17,0.23-0.25
				s0.17-0.16,0.25-0.24c1.07-0.95,2.31-1.36,3.08-1.11c0.18,0.06,0.33,0.16,0.45,0.29c0,0,0,0,0.01,0.01
				c0.03,0.04,0.06,0.08,0.09,0.12c0.01,0.01,0.01,0.02,0.02,0.03c0.02,0.04,0.04,0.09,0.06,0.13c0.01,0.01,0.01,0.02,0.01,0.03
				c0.02,0.05,0.03,0.09,0.04,0.15c0,0.01,0,0.02,0.01,0.03c0.01,0.05,0.02,0.1,0.02,0.15c0,0.01,0,0.02,0,0.03c0,0.05,0,0.1,0,0.15
				c0,0.02,0,0.03,0,0.05c0,0.05-0.01,0.11-0.02,0.16c0,0.02-0.01,0.04-0.01,0.06c-0.01,0.05-0.02,0.11-0.04,0.16
				c0,0.02-0.01,0.05-0.02,0.07c-0.01,0.04-0.03,0.08-0.04,0.13c-0.01,0.04-0.03,0.07-0.04,0.11c-0.02,0.04-0.03,0.08-0.05,0.12
				c-0.01,0.03-0.03,0.06-0.04,0.09l0,0c-0.13,0.27-0.29,0.54-0.5,0.81s-0.45,0.54-0.74,0.78c-0.01,0.01-0.03,0.02-0.04,0.04
				c-0.05,0.04-0.12,0.1-0.19,0.16c-0.01,0.01-0.02,0.02-0.03,0.03C99.68,29.46,97.07,31.15,95.2,31.15 M59.74,26.42
				c0-0.01,0-0.01,0.01-0.02c0.17-0.45,0.37-0.93,0.61-1.43c0.27-0.56,0.56-1.07,0.84-1.52c0.74-1.26,1.5-2.08,1.94-2.04
				c0.01,0,0.02,0,0.03,0c0.08,0,0.15,0.02,0.21,0.06l0,0c0.08,0.05,0.14,0.14,0.16,0.24c0,0.01,0,0.03,0.01,0.04
				c0.02,0.11,0.03,0.23,0.04,0.36c0.01,0.23-0.01,0.49-0.06,0.75c-0.14,0.78-0.5,1.67-1.08,2.53c-0.93,1.38-2.16,2.29-3.12,2.42
				C59.41,27.36,59.55,26.9,59.74,26.42 M75.94,15.92c0-0.01,0.01-0.01,0.01-0.02c0.26-0.48,0.56-0.99,0.9-1.51
				c0.38-0.58,0.75-1.11,1.11-1.56c0.95-1.28,1.79-2.06,2.13-1.94c0.01,0,0.01,0,0.02,0c0.06,0.02,0.11,0.06,0.15,0.11l0,0
				c0.05,0.08,0.07,0.18,0.06,0.3c0,0.01,0,0.03,0,0.05c-0.02,0.13-0.04,0.27-0.07,0.41c-0.06,0.27-0.15,0.55-0.26,0.85
				c-0.33,0.86-0.88,1.81-1.59,2.67c-1.14,1.39-2.38,2.18-3.18,2.13C75.41,16.93,75.66,16.42,75.94,15.92 M85.12,26.37
				c0.15-0.32,0.31-0.65,0.48-0.98c0.22-0.43,0.47-0.87,0.73-1.31c0.01-0.01,0.01-0.03,0.02-0.04c0.12-0.19,0.24-0.37,0.36-0.54
				c0.63-0.99,1.27-1.69,1.72-1.9c0,0,0,0,0.01,0c0.11-0.05,0.2-0.07,0.28-0.06c0.01,0,0.02,0,0.03,0c0.08,0,0.15,0.03,0.21,0.07
				l0,0c0.07,0.05,0.12,0.12,0.14,0.21l0,0c0.01,0.03,0.01,0.05,0.01,0.08v0.01c0.01,0.08,0.02,0.16,0.03,0.25
				c0.02,0.25,0,0.52-0.05,0.81c-0.14,0.84-0.53,1.8-1.18,2.73c-0.88,1.28-2.01,2.19-3.01,2.54c-0.14,0.05-0.27,0.08-0.4,0.11
				C84.65,27.7,84.85,27.04,85.12,26.37 M103.53,11.54c1.73-1.88,1.28,0.26,1.28,0.26c-1.4,5.01-4.78,5.98-4.78,5.98
				S101.8,13.42,103.53,11.54 M120.96,33.25c-0.62,0.63-1.79,1.59-2.6,0.99c-0.7-0.51,0.08-3.76,0.76-6.08
				c0.05-0.16,0.09-0.31,0.13-0.46c0.12-0.39,0.69-1.98,0.56-1.93c-0.07,0.02-0.41,0.37-0.73,0.71c-0.01,0-0.01,0.01-0.02,0.02
				c-0.3,0.32-0.58,0.63-0.58,0.63c-0.57,0.61-1.37,1.44-2.22,2.22c-0.85,0.78-1.74,1.51-2.48,1.92c0,0,0,0-0.01,0
				c-0.02,0.02-0.05,0.03-0.07,0.04c-0.01,0-0.01,0.01-0.01,0.01c-0.03,0.02-0.06,0.04-0.09,0.05c-0.03,0.02-0.06,0.03-0.09,0.05
				s-0.06,0.03-0.09,0.05c-0.18,0.09-0.35,0.17-0.52,0.22c-0.08,0.03-0.16,0.05-0.24,0.07c-0.12,0.03-0.24,0.05-0.35,0.06
				c-0.13,0.01-0.26,0-0.37-0.02c-0.14-0.03-0.26-0.08-0.36-0.16c-0.97-0.73-0.17-3.4,1.77-5.96c0.03-0.04,0.06-0.08,0.09-0.12l0,0
				l0,0c0.79-1.02,1.64-1.85,2.43-2.44c0.04-0.03,0.07-0.06,0.11-0.09l0.01-0.01c0.04-0.02,0.07-0.05,0.1-0.07l0,0
				c0.01-0.01,0.03-0.02,0.05-0.03c0.01-0.01,0.03-0.02,0.04-0.03l0,0c0.09-0.07,0.18-0.14,0.27-0.2c0.01-0.01,0.02-0.02,0.03-0.02
				c0.04-0.03,0.07-0.05,0.11-0.07c0.03-0.02,0.06-0.03,0.08-0.05c0.08-0.05,0.16-0.09,0.23-0.13c0,0,0.01,0,0.01-0.01
				c0.59-0.3,1.15-0.4,1.52-0.25c0,0,0.01,0,0.01,0.01c0.1,0.04,0.19,0.1,0.26,0.19c0.4,0.5-0.09,1.55-1.09,2.34
				c-0.39,0.31-0.8,0.54-1.18,0.67l0.06,0.57c0.25-0.04,0.52-0.1,0.78-0.17c0.5-0.14,0.96-0.32,1.37-0.54
				c0.03-0.02,0.06-0.03,0.09-0.05c0.01,0,0.01,0,0.02-0.01l0,0c1.32-0.72,2.1-1.76,1.85-2.65c-0.06-0.21-0.17-0.4-0.33-0.56
				c-0.19-0.2-0.45-0.36-0.76-0.49c-0.01,0-0.01,0-0.02-0.01c-0.42-0.16-0.93-0.25-1.49-0.26c-0.29,0-0.6,0.01-0.92,0.06
				c-0.4,0.05-0.81,0.12-1.22,0.22h-0.01c-0.65,0.16-1.3,0.39-1.94,0.68c-0.01,0-0.01,0.01-0.02,0.01c-3.1,1.46-6.14,4.66-8.18,8.94
				l0,0c-0.01,0.02-0.14,0.32-0.2,0.45c-0.03,0.07-0.06,0.15-0.09,0.22c-0.08,0.18-0.17,0.37-0.26,0.56
				c-0.34,0.71-0.74,1.43-1.14,1.86c-0.03,0.04-0.07,0.07-0.1,0.1c-0.09,0.09-0.18,0.18-0.26,0.24c-0.21,0.19-0.37,0.29-0.43,0.33
				c-0.03,0.01-0.06,0.03-0.09,0.04c-0.79,0.35-1.39-0.06-1.8-0.58c-0.3-0.32-0.51-0.8-0.68-1.31c0-0.01,0-0.01,0-0.01
				c-0.3-0.95-0.39-2.02-0.42-2.44c0.48-0.15,1.27-0.47,2.58-1.1c0.02-0.01,0.03-0.02,0.05-0.02c0.51-0.23,1.01-0.53,1.5-0.89
				c0.16-0.12,0.32-0.25,0.48-0.38c0.13-0.11,0.25-0.22,0.38-0.34c0.39-0.36,0.73-0.75,1.02-1.15c1.31-1.79,1.62-3.78,0.63-4.96
				c-1.04-1.23-3.2-1.18-5.27-0.03c-0.46,0.25-0.92,0.57-1.35,0.93l0,0c0,0-1.61,1.25-3.16,3.31c0.74-2.04,1.44-3.98,2.06-5.7
				c0.19-0.53,0.37-1.03,0.55-1.51c0.02,0,0.03-0.01,0.05-0.01c0.83-0.21,1.7-0.51,2.59-0.91c0.47-0.18,0.95-0.4,1.43-0.67
				c0.14-0.08,0.28-0.17,0.42-0.26c0.46-0.3,0.87-0.63,1.24-0.97c1.73-1.85,2.37-3.99,1.43-5.13c-1.05-1.27-3.71-0.81-6.04,0.99
				c-0.03,0.02-0.05,0.04-0.07,0.06c-0.15,0.13-0.31,0.26-0.47,0.39c-0.03,0.03-0.07,0.06-0.1,0.09c-0.23,0.2-0.46,0.41-0.68,0.64
				v-0.01c0,0-0.36,0.31-0.99,1.04c0,0.01-0.01,0.01-0.01,0.02c-0.49,0.58-1.13,1.43-1.88,2.6c-0.41,0.63-0.84,1.37-1.3,2.2
				c-0.9,1.63-1.88,3.67-2.89,6.18c-0.01,0.02-0.02,0.05-0.02,0.07l0,0l-1.82,5.04c0,0,0,0,0,0.01l-0.21,0.58c0,0,0,0-0.01,0
				c-0.42,0.36-0.87,0.7-1.35,0.97c-0.02,0.01-0.03,0.02-0.04,0.02c-0.11,0.06-0.23,0.12-0.34,0.17c-0.01,0.01-0.03,0.01-0.04,0.02
				c-0.51,0.25-1,0.44-1.45,0.56c-0.01,0-0.02,0.01-0.03,0.01c-0.02,0.01-0.05,0.01-0.07,0.02c-0.14,0.04-0.27,0.06-0.39,0.07
				c-0.01,0-0.01,0-0.02,0c-0.02,0-0.05,0-0.07,0.01c-0.24,0.02-0.49-0.01-0.74-0.08c-0.77-0.23-1.31-0.88-1.45-1.65v-0.01
				c-0.01-0.06-0.02-0.13-0.02-0.19c0-0.02,0-0.05-0.01-0.07c0-0.01,0-0.02,0-0.03c-0.01-0.17-0.02-0.34-0.02-0.52
				c0.02,0,0.04-0.01,0.07-0.01c0.03-0.01,0.06-0.01,0.08-0.02c0.07-0.01,0.14-0.03,0.2-0.04c0.63-0.14,1.22-0.32,1.78-0.53
				c0.13-0.05,0.26-0.1,0.39-0.15c0.01,0,0.02-0.01,0.03-0.01c0.11-0.04,0.21-0.09,0.31-0.13c0.22-0.1,0.44-0.2,0.65-0.31
				c0.2-0.1,0.39-0.21,0.57-0.33c0.03-0.02,0.05-0.03,0.08-0.05c0.34-0.22,0.66-0.45,0.96-0.71c0.07-0.06,0.13-0.12,0.2-0.18
				c0.13-0.12,0.25-0.24,0.37-0.36c0.03-0.03,0.05-0.06,0.08-0.08c1.42-1.52,2.08-3.35,1.65-4.74c-0.02-0.08-0.05-0.15-0.08-0.23
				c-0.05-0.11-0.11-0.22-0.18-0.32c0-0.01-0.01-0.01-0.01-0.02c-0.09-0.13-0.2-0.25-0.32-0.35c-0.37-0.32-0.87-0.53-1.44-0.62
				c-0.01,0-0.02,0-0.03-0.01c-0.02,0-0.05-0.01-0.07-0.01c-0.09-0.01-0.17-0.02-0.26-0.03h-0.01c-0.01,0-0.01,0-0.02,0
				c-0.04,0-0.08,0-0.12-0.01c-0.03,0-0.06,0-0.08,0c-0.04,0-0.07,0-0.11,0s-0.08,0-0.11,0c-0.01,0-0.02,0-0.04,0
				c-0.05,0-0.1,0-0.15,0.01c-0.02,0-0.04,0-0.06,0c-0.01,0-0.01,0-0.02,0c-0.03,0-0.07,0-0.11,0.01l0,0c-0.05,0-0.1,0.01-0.15,0.01
				l0,0c-0.36,0.04-0.74,0.11-1.12,0.21c-0.03,0.01-0.05,0.01-0.08,0.02C87.17,21,87.14,21,87.12,21.01c-0.01,0-0.02,0.01-0.03,0.01
				c-0.06,0.02-0.12,0.03-0.18,0.05c-0.16,0.05-0.32,0.1-0.48,0.16c-0.01,0-0.01,0-0.02,0.01c-0.2,0.08-0.41,0.16-0.61,0.25
				c-0.01,0-0.01,0.01-0.02,0.01c-0.06,0.03-0.13,0.06-0.19,0.09h-0.01c-0.22,0.11-0.44,0.23-0.65,0.36c0,0,0,0-0.01,0
				c-0.64,0.39-1.28,0.86-1.88,1.41c-0.07,0.06-0.14,0.12-0.2,0.18l0,0c-0.15,0.14-0.3,0.29-0.45,0.44
				c-0.26,0.27-0.52,0.56-0.76,0.86c-0.05,0.06-0.09,0.11-0.14,0.17l-0.01,0.01c-0.02,0.02-0.03,0.04-0.05,0.06
				c-0.01,0.02-0.03,0.04-0.05,0.06c-0.03,0.04-0.06,0.08-0.09,0.12c-0.14,0.2-0.27,0.4-0.4,0.6c-0.03,0.04-0.06,0.09-0.08,0.13
				c-0.02,0.03-0.04,0.06-0.06,0.09c-0.01,0.01-0.02,0.03-0.03,0.05c-0.03,0.05-0.06,0.1-0.09,0.15c-0.01,0.01-0.02,0.03-0.02,0.04
				c-0.04,0.07-0.08,0.15-0.12,0.22s-0.08,0.14-0.12,0.22c0,0.01-0.01,0.01-0.01,0.02c-0.04,0.08-0.08,0.15-0.12,0.22
				c-0.04,0.08-0.08,0.15-0.11,0.23l0,0c-0.04,0.08-0.07,0.15-0.11,0.23c-0.02,0.05-0.05,0.1-0.07,0.15
				c-0.01,0.03-0.02,0.05-0.03,0.08c0,0,0,0,0,0.01c-0.01,0.03-0.02,0.06-0.04,0.08c-0.05,0.11-0.09,0.21-0.13,0.32
				c0,0.01-0.01,0.02-0.01,0.03c-0.01,0.01-0.01,0.03-0.02,0.04c0,0.01-0.01,0.02-0.01,0.03c-0.01,0.03-0.03,0.07-0.04,0.1
				c-0.02,0.06-0.04,0.11-0.06,0.17c-0.01,0.03-0.02,0.06-0.03,0.09s-0.02,0.05-0.03,0.08c0,0.01,0,0.02-0.01,0.02
				c-0.02,0.06-0.04,0.11-0.06,0.17c0,0.01-0.01,0.02-0.01,0.03h-0.01c-0.09-0.01-0.17-0.02-0.26-0.03
				c-0.15-0.01-0.29-0.03-0.44-0.05c-0.07-0.01-0.13-0.02-0.2-0.03c-0.13-0.02-0.26-0.04-0.39-0.06c0.18-0.65,0.3-1.3,0.36-1.93
				c0.02-0.19,0.04-0.39,0.05-0.58h-0.01c0.01-0.3-0.01-0.62-0.05-0.93c-0.01-0.06-0.02-0.11-0.03-0.17
				c-0.02-0.11-0.04-0.22-0.07-0.32c-0.01-0.03-0.02-0.06-0.02-0.1c0-0.02-0.01-0.04-0.02-0.06c0-0.01,0-0.02-0.01-0.03
				c-0.01-0.04-0.02-0.08-0.03-0.11c-0.01-0.02-0.01-0.05-0.02-0.07l0,0c-0.01-0.02-0.01-0.05-0.02-0.07
				c-0.02-0.06-0.04-0.11-0.06-0.17c-0.01-0.04-0.03-0.08-0.05-0.11c-0.01-0.02-0.02-0.04-0.03-0.07c-0.03-0.07-0.06-0.14-0.1-0.21
				c-0.02-0.05-0.05-0.09-0.07-0.14c-0.02-0.04-0.05-0.09-0.07-0.13c-0.03-0.05-0.06-0.1-0.09-0.15c-0.01-0.02-0.03-0.04-0.04-0.07
				c-0.01-0.02-0.02-0.03-0.03-0.05c-0.02-0.03-0.04-0.06-0.06-0.08c0-0.01-0.01-0.01-0.01-0.02c-0.04-0.05-0.07-0.1-0.11-0.14
				c-0.03-0.04-0.07-0.08-0.1-0.12c-0.02-0.02-0.04-0.05-0.06-0.07s-0.04-0.05-0.07-0.07c-0.02-0.02-0.03-0.03-0.05-0.05
				c-0.04-0.04-0.08-0.08-0.12-0.11c-0.03-0.03-0.06-0.05-0.09-0.07s-0.05-0.04-0.08-0.06c-0.04-0.03-0.08-0.05-0.12-0.08l0,0
				c-0.2-0.12-0.42-0.21-0.64-0.25c-0.13-0.02-0.26-0.03-0.39-0.02c-0.04,0-0.07,0.01-0.11,0.01c-0.18,0.03-0.35,0.08-0.51,0.17
				c-0.09,0.05-0.17,0.1-0.25,0.17c-0.16,0.12-0.3,0.28-0.43,0.45c0,0,0,0.01-0.01,0.01c-0.34,0.48-0.56,1.14-0.61,1.88l0,0
				c-0.01,0.14-0.02,0.28-0.01,0.43v0.01c-0.01,0.37,0.03,0.74,0.12,1.12c0.02,0.08,0.04,0.17,0.06,0.25
				c0.09,0.31,0.21,0.61,0.36,0.9c0.16,0.3,0.35,0.58,0.57,0.85c0.18,0.22,0.39,0.43,0.61,0.62c0.06,0.05,0.11,0.1,0.17,0.14
				c0.05,0.04,0.11,0.08,0.16,0.12l0.01,0.01c0.01,0,0.01,0.01,0.02,0.02c0,0,0,0,0.01,0.01c0.04,0.03,0.08,0.06,0.12,0.08
				c0.02,0.02,0.04,0.03,0.07,0.05c0.02,0.01,0.04,0.03,0.07,0.04c0.04,0.03,0.07,0.05,0.11,0.07c-0.51,2.18-1.59,3.68-2.83,3.68
				c-0.02,0-0.03,0-0.05,0c-0.05,0-0.11,0-0.16,0c-0.04,0-0.07-0.01-0.11-0.01c-0.01,0-0.02,0-0.03,0
				c-0.03-0.01-0.06-0.01-0.09-0.01c-0.02,0-0.03-0.01-0.05-0.01c-0.02,0-0.04-0.01-0.06-0.01c-0.01,0-0.02-0.01-0.02-0.01
				c-0.03-0.01-0.07-0.02-0.1-0.03c-0.05-0.02-0.1-0.04-0.15-0.06c-0.02-0.01-0.05-0.02-0.07-0.03c-0.03-0.01-0.06-0.03-0.09-0.05
				c-0.04-0.02-0.08-0.05-0.11-0.07c-0.02-0.01-0.04-0.03-0.06-0.04c-0.03-0.02-0.05-0.04-0.08-0.06c-0.03-0.03-0.06-0.05-0.09-0.08
				c-0.01-0.01-0.03-0.03-0.04-0.04c-0.03-0.02-0.05-0.05-0.08-0.08c-0.02-0.03-0.05-0.05-0.07-0.08l0,0
				c-0.01-0.01-0.02-0.02-0.03-0.04c-0.02-0.03-0.05-0.06-0.07-0.09l0,0c-0.03-0.04-0.06-0.08-0.08-0.12
				c-0.03-0.04-0.05-0.09-0.07-0.13c-0.02-0.03-0.04-0.07-0.05-0.1c-0.01-0.01-0.01-0.03-0.02-0.04c-0.02-0.04-0.03-0.08-0.05-0.12
				c-0.03-0.08-0.06-0.16-0.07-0.24c-0.01-0.03-0.02-0.07-0.03-0.1s-0.01-0.06-0.02-0.08c-0.01-0.03-0.02-0.07-0.02-0.1
				c-0.01-0.03-0.01-0.07-0.02-0.1c0-0.02-0.01-0.03-0.01-0.05l0,0c0-0.02-0.01-0.04-0.01-0.05c0-0.02-0.01-0.04-0.01-0.06
				s0-0.04-0.01-0.06c0-0.02-0.01-0.04-0.01-0.06s0-0.04,0-0.05c0-0.04-0.01-0.08-0.01-0.12l0,0c0-0.02,0-0.03,0-0.05
				c0-0.04-0.01-0.08-0.01-0.13c0-0.01,0-0.02,0-0.03c0-0.02,0-0.04,0-0.06c0-0.05,0-0.1,0-0.15v-0.05c0-0.06,0-0.12,0-0.18
				c0-0.12,0.01-0.25,0.02-0.38v-0.01c0-0.06,0.01-0.13,0.01-0.19v-0.01c0-0.01,0-0.01,0-0.02c0.01-0.11,0.02-0.22,0.03-0.34
				c0.01-0.06,0.01-0.11,0.02-0.17c0.01-0.07,0.02-0.14,0.03-0.21c0.01-0.1,0.03-0.21,0.05-0.31c0.01-0.06,0.02-0.13,0.03-0.2
				s0.02-0.13,0.04-0.2c0.01-0.09,0.03-0.17,0.05-0.26c0.01-0.08,0.03-0.15,0.05-0.23c0-0.01,0-0.02,0.01-0.03
				c0.01-0.07,0.03-0.14,0.04-0.21c0.02-0.1,0.04-0.21,0.07-0.31c0.01-0.04,0.02-0.08,0.03-0.12c0.02-0.07,0.03-0.14,0.05-0.22
				c0.02-0.09,0.04-0.19,0.07-0.28c0-0.01,0-0.01,0-0.01c0.02-0.09,0.04-0.18,0.07-0.27c0.02-0.09,0.04-0.17,0.07-0.26
				c0-0.02,0.01-0.04,0.02-0.06c0.02-0.08,0.05-0.17,0.07-0.26c0.05-0.18,0.1-0.37,0.16-0.55c0.03-0.09,0.06-0.19,0.08-0.28
				c0.01-0.05,0.03-0.1,0.05-0.15c0.03-0.11,0.06-0.21,0.1-0.32c0.03-0.11,0.07-0.22,0.1-0.32s0.06-0.19,0.1-0.29s0.07-0.2,0.1-0.29
				c0.2-0.6,0.42-1.2,0.66-1.82c0-0.01,0.01-0.02,0.01-0.03c0.03-0.09,0.07-0.18,0.1-0.26c0.01-0.02,0.01-0.03,0.02-0.05
				c0.01-0.02,0.01-0.04,0.02-0.06c0.02-0.06,0.04-0.11,0.07-0.17c0.06-0.15,0.12-0.3,0.18-0.45c0.02-0.06,0.05-0.11,0.07-0.17l0,0
				l0,0c0.03-0.07,0.05-0.13,0.08-0.2c0.08-0.2,0.17-0.39,0.25-0.58c0.1-0.24,0.21-0.48,0.32-0.71h0.01
				c0.18-0.04,0.37-0.09,0.56-0.14c0.37-0.1,0.74-0.22,1.12-0.35c0.31-0.11,0.61-0.22,0.9-0.34c0.03-0.01,0.06-0.03,0.09-0.04
				c0.01,0,0.02-0.01,0.03-0.01c0.04-0.01,0.07-0.03,0.11-0.04c0.08-0.04,0.17-0.07,0.26-0.11c0.57-0.26,1.1-0.54,1.57-0.83
				c0.54-0.33,0.99-0.67,1.34-1.01c0.2-0.19,0.36-0.37,0.49-0.55c0,0,0,0,0.01-0.01c0.05-0.07,0.1-0.14,0.16-0.21
				c0.53-0.73,0.88-1.49,1.02-2.2c0,0,0,0,0-0.01c0.01-0.04,0.01-0.08,0.02-0.11c0.02-0.09,0.03-0.18,0.04-0.26c0,0,0,0,0-0.01
				c0-0.03,0.01-0.06,0.01-0.08v-0.01c0.02-0.29,0.01-0.56-0.04-0.82c0-0.02-0.01-0.05-0.02-0.08c-0.02-0.1-0.05-0.21-0.09-0.31
				c-0.13-0.34-0.33-0.63-0.55-0.82c-0.02-0.02-0.04-0.03-0.06-0.05c-0.08-0.07-0.17-0.13-0.26-0.18c-0.43-0.25-0.97-0.33-1.58-0.27
				c-0.1,0.01-0.19,0.02-0.29,0.04l0,0c-0.3,0.05-0.61,0.14-0.93,0.25c-0.21,0.08-0.43,0.17-0.64,0.27
				c-0.56,0.25-1.14,0.59-1.73,1.01c0,0-0.01,0-0.01,0.01c-1.3,0.92-2.64,2.22-3.93,3.82c-0.62,0.77-1.23,1.61-1.81,2.52
				c-0.08,0.13-0.17,0.26-0.25,0.4c-0.09,0.15-0.19,0.3-0.28,0.45c-0.23,0.38-0.46,0.78-0.68,1.18c-0.01,0.02-0.02,0.04-0.03,0.06
				c-0.01,0.01-0.02,0.03-0.02,0.04c-0.01,0.02-0.03,0.04-0.04,0.07c-0.47,0.92-0.88,1.84-1.24,2.75c-0.21,0.53-0.4,1.06-0.58,1.58
				l0,0c-0.04,0.13-0.08,0.25-0.12,0.37c-0.01,0.04-0.03,0.08-0.04,0.12c0,0.01-0.01,0.03-0.01,0.04c-0.03,0.1-0.06,0.19-0.09,0.29
				v0.01c-0.05,0.16-0.09,0.31-0.14,0.46c-0.04,0.14-0.08,0.28-0.11,0.42c-0.07,0.28-0.14,0.55-0.2,0.82
				c-0.02,0.09-0.04,0.18-0.06,0.27c0,0.01,0,0.01,0,0.02c-0.02,0.09-0.04,0.17-0.05,0.26c-0.02,0.1-0.04,0.2-0.06,0.3
				c-0.01,0.09-0.03,0.17-0.04,0.26c-0.02,0.09-0.03,0.17-0.04,0.26c0,0,0,0.01,0,0.02c-0.01,0.04-0.01,0.08-0.02,0.12
				c0,0.01,0,0.01,0,0.02c-0.01,0.07-0.02,0.13-0.03,0.2c-0.03,0.18-0.05,0.36-0.07,0.53c0,0.01,0,0.01,0,0.02
				c-0.44,0.5-0.92,0.95-1.43,1.39c-0.84,0.73-1.82,1.37-2.94,1.53c-2.01,0.3-2.84-1.52-2.74-3.26c0.19-0.01,0.38-0.03,0.57-0.06
				c0,0,0,0,0.01,0c0.47-0.05,0.96-0.16,1.45-0.33c0.64-0.21,1.28-0.53,1.91-0.93c2.36-1.53,3.59-3.88,3-5.51
				c-0.02-0.07-0.05-0.14-0.09-0.21c-0.05-0.1-0.11-0.2-0.19-0.29c0-0.01-0.01-0.01-0.01-0.02c-0.1-0.12-0.21-0.22-0.33-0.32
				c-0.42-0.33-1-0.52-1.67-0.57c-0.05,0-0.1-0.01-0.15-0.01c-0.03,0-0.06,0-0.08,0c-0.03,0-0.07,0-0.11,0s-0.07,0-0.11,0
				c-0.06,0-0.13,0-0.19,0.01c-0.02,0-0.04,0-0.06,0c-0.09,0.01-0.18,0.01-0.28,0.02l0,0c-0.36,0.04-0.74,0.11-1.12,0.21
				c-0.03,0.01-0.05,0.01-0.08,0.02c-0.02,0.01-0.05,0.01-0.07,0.02c-0.23,0.06-0.46,0.14-0.7,0.23c-0.01,0-0.01,0-0.02,0.01
				c-0.2,0.08-0.41,0.16-0.61,0.25c-0.01,0-0.01,0.01-0.02,0.01c-0.06,0.03-0.13,0.06-0.19,0.09h-0.01
				c-0.86,0.44-1.73,1.03-2.54,1.77c-0.07,0.06-0.13,0.12-0.2,0.18l0,0c-0.47,0.45-0.93,0.94-1.36,1.48
				c-0.02,0.02-0.03,0.04-0.05,0.06c-0.02,0.02-0.03,0.04-0.05,0.06c-0.03,0.04-0.06,0.08-0.09,0.12c-0.14,0.2-0.27,0.4-0.4,0.6
				c-1.53,2.41-2.15,5.01-1.81,7.04c0.19,1.14,0.68,2.1,1.48,2.75c0.06,0.05,0.12,0.1,0.19,0.14c1.25,0.88,2.93,0.9,4.66,0.22
				c0.4-0.16,0.79-0.35,1.19-0.58c0.1-0.06,0.2-0.12,0.3-0.18c0.05-0.03,0.1-0.07,0.16-0.1c0.04-0.03,0.08-0.05,0.12-0.08
				c0.05-0.03,0.1-0.06,0.15-0.1c0.08-0.06,0.16-0.11,0.24-0.17c0.8-0.58,1.62-1.22,2.42-1.93c0.21-0.19,0.42-0.37,0.63-0.56
				c0.4-0.37,0.78-0.73,1.15-1.1l0,0c0,0.03,0,0.06,0,0.08c0,0.05,0,0.09,0.01,0.14c0,0.07,0.01,0.14,0.01,0.21
				c0,0.05,0.01,0.1,0.01,0.15c0,0.05,0.01,0.1,0.01,0.16c0,0.04,0.01,0.08,0.01,0.12c0,0.02,0.01,0.04,0.01,0.07
				c0.01,0.09,0.02,0.18,0.04,0.27c0,0.04,0.01,0.08,0.02,0.12c0.01,0.08,0.03,0.15,0.04,0.22c0.01,0.04,0.02,0.09,0.03,0.13
				c0,0.01,0.01,0.02,0.01,0.04c0.01,0.02,0.01,0.04,0.01,0.07c0.01,0.04,0.02,0.07,0.03,0.11c0,0.01,0,0.01,0,0.01
				c0.01,0.05,0.02,0.09,0.04,0.14c0.02,0.06,0.03,0.12,0.05,0.18c0.02,0.06,0.03,0.12,0.06,0.17c0,0.01,0,0.01,0.01,0.02
				c0.02,0.05,0.04,0.1,0.05,0.15c0.01,0.04,0.03,0.08,0.04,0.11s0.02,0.05,0.03,0.08c0,0,0,0.01,0.01,0.01
				c0.01,0.03,0.02,0.05,0.03,0.08c0,0.01,0.01,0.02,0.01,0.02c0.01,0.03,0.03,0.07,0.05,0.1c0.01,0.02,0.02,0.04,0.03,0.06
				s0.03,0.05,0.04,0.08c0.01,0.01,0.01,0.03,0.02,0.04c0,0.01,0.01,0.02,0.01,0.03c0.03,0.05,0.05,0.09,0.08,0.14
				c0.04,0.06,0.07,0.12,0.11,0.18c0.01,0.01,0.01,0.02,0.02,0.03c0.14,0.2,0.3,0.39,0.47,0.55l0.01,0.01
				c0.08,0.08,0.16,0.16,0.25,0.23l0,0c0.4,0.34,0.85,0.61,1.36,0.77c1.23,0.41,2.56,0.21,3.81-0.48c0.65-0.36,1.28-0.85,1.86-1.45
				c0.01-0.01,0.02-0.02,0.03-0.03c0.97-0.97,1.83-2.19,2.49-3.62c0.09-0.2,0.18-0.39,0.25-0.59c0.13,0.04,0.25,0.09,0.38,0.12
				c0.23,0.07,0.47,0.13,0.72,0.18c0.1,0.02,0.2,0.04,0.3,0.05l0,0c-0.01,0.06-0.02,0.11-0.02,0.17c-0.01,0.04-0.01,0.08-0.01,0.12
				c-0.01,0.05-0.01,0.1-0.02,0.15c-0.01,0.12-0.02,0.24-0.03,0.35c0,0.07-0.01,0.13-0.01,0.2c-0.01,0.16-0.01,0.31-0.01,0.46l0,0
				c0,0.15,0.01,0.29,0.02,0.43c0.01,0.09,0.02,0.19,0.03,0.28s0.02,0.18,0.04,0.27c0.19,1.14,0.68,2.1,1.48,2.75
				c0.06,0.05,0.12,0.1,0.19,0.14c0.24,0.17,0.5,0.31,0.78,0.42c0.47,0.18,0.97,0.27,1.51,0.28c0.69-0.01,1.43-0.18,2.18-0.48
				c0.38-0.16,0.77-0.35,1.15-0.58c0.1-0.06,0.19-0.12,0.29-0.18c0.05-0.03,0.1-0.07,0.15-0.1c0.04-0.03,0.08-0.05,0.11-0.08
				c0.05-0.03,0.1-0.06,0.14-0.1c0.08-0.06,0.15-0.11,0.23-0.17c0.38-0.28,0.76-0.58,1.14-0.89c0.39-0.32,0.78-0.65,1.17-1
				l-1.16,3.21h2.75l0,0h2.73c0,0,0.48-1.58,1.18-3.82c0.18,0.46,0.42,1.08,0.65,1.67c0.15,0.43,0.32,0.84,0.51,1.22
				c0,0.01,0.01,0.01,0.01,0.02c0.01,0.01,0.01,0.02,0.02,0.03c0.01,0.01,0.01,0.02,0.02,0.03c0.93,1.8,2.32,2.95,3.88,2.95
				c0.56,0,1.09-0.15,1.6-0.42c0.01,0,0.01-0.01,0.02-0.01c0.1-0.05,0.19-0.11,0.29-0.17c1.64-1.03,2.6-2.51,3.01-3.27
				c0.03-0.06,0.06-0.12,0.09-0.17c0.02,0.11,0.04,0.23,0.07,0.34l0,0c0.07,0.19,0.19,0.48,0.37,0.81c0.07,0.13,0.1,0.18,0.09,0.14
				c0.01,0.02,0.02,0.03,0.03,0.05c0.09,0.15,0.2,0.28,0.33,0.4c0.06,0.06,0.12,0.11,0.18,0.16c1.1,0.83,2.91,0.43,4.79-0.84
				c0.63-0.43,1.27-0.96,1.89-1.58c0.14-0.14,0.28-0.29,0.42-0.44c-0.02,0.33-0.02,0.64-0.01,0.93c0,0.06,0,0.13,0,0.19v0.02
				c0,0.01,0,0.03,0,0.04c0.01,0.33,0.08,0.64,0.18,0.92c0.01,0.02,0.01,0.05,0.02,0.07c0.09,0.21,0.2,0.4,0.33,0.58
				c0.02,0.02,0.05,0.05,0.07,0.07s0.04,0.05,0.06,0.07c0.51,0.56,1.23,0.84,2.04,0.86c1.16,0.03,2.49-0.49,3.6-1.5
				c0.03-0.03,0.06-0.06,0.09-0.09c0.76-0.72,1.28-1.56,1.55-2.4C121.14,33.1,121.05,33.18,120.96,33.25"/>
		</g>
	</g>
</g>
</svg>
