<svg width="52" height="12" viewBox="0 0 52 12" fill="none" xmlns="http://www.w3.org/2000/svg">
<path d="M26.52 6.81499C26.52 9.34499 28.62 11.195 31.28 11.195C33.94 11.195 36.04 9.34499 36.04 6.81499V1.00499H33.46V6.51499C33.46 7.87499 32.51 8.79499 31.27 8.79499C30.03 8.79499 29.08 7.88499 29.08 6.51499V1.00499H26.5L26.52 6.81499ZM42.93 3.33499H46.01V11.005H48.59V3.33499H51.67V1.00499H42.94V3.33499H42.93ZM41.26 1.00499H38.68V11.005H41.26V1.00499V1.00499ZM16.11 3.33499H19.19V11.005H21.77V3.33499H24.84V1.00499H16.11V3.33499V3.33499ZM2.58 1.00499H0V11.005H2.58V1.00499ZM14.75 5.18499C14.75 2.65499 12.65 0.804993 9.99 0.804993C7.33 0.804993 5.23 2.65499 5.23 5.18499V11.005H7.81V5.49499C7.81 4.13499 8.76 3.21499 10 3.21499C11.24 3.21499 12.19 4.12499 12.19 5.49499V11.005H14.77L14.75 5.18499V5.18499Z" fill="#236CFF"/>
</svg>
